<svg width="25" height="27" viewBox="0 0 25 27" fill="none" xmlns="http://www.w3.org/2000/svg">
<path d="M0.875 1.86471C0.875 1.15687 1.44979 0.583374 2.15762 0.583374H22.8424C23.1816 0.585738 23.5063 0.721454 23.7463 0.961203C23.9862 1.20095 24.1223 1.52549 24.125 1.86471V25.1354C24.1247 25.4753 23.9894 25.8012 23.7489 26.0415C23.5084 26.2818 23.1823 26.4167 22.8424 26.4167H2.15762C1.81841 26.4143 1.49373 26.2786 1.25374 26.0389C1.01375 25.7991 0.877706 25.4746 0.875 25.1354V1.86471ZM21.5417 12.2084V3.16671H3.45833V12.2084H21.5417ZM21.5417 14.7917H3.45833V23.8334H21.5417V14.7917ZM8.625 5.75004H16.375V8.33337H8.625V5.75004ZM8.625 17.375H16.375V19.9584H8.625V17.375Z" fill="#0FBB59"/>
</svg>
