<svg width="12" height="14" viewBox="0 0 12 14" fill="none" xmlns="http://www.w3.org/2000/svg">
<path d="M1.00001 5.99994H8.59001L5.29001 2.70994C5.10171 2.52164 4.99592 2.26624 4.99592 1.99994C4.99592 1.73364 5.10171 1.47825 5.29001 1.28994C5.47832 1.10164 5.73371 0.99585 6.00001 0.99585C6.26631 0.99585 6.52171 1.10164 6.71001 1.28994L11.71 6.28994C11.8011 6.38505 11.8724 6.49719 11.92 6.61994C12.02 6.8634 12.02 7.13648 11.92 7.37994C11.8724 7.50269 11.8011 7.61484 11.71 7.70994L6.71001 12.7099C6.61705 12.8037 6.50645 12.8781 6.38459 12.9288C6.26273 12.9796 6.13202 13.0057 6.00001 13.0057C5.868 13.0057 5.73729 12.9796 5.61544 12.9288C5.49358 12.8781 5.38298 12.8037 5.29001 12.7099C5.19628 12.617 5.12189 12.5064 5.07112 12.3845C5.02035 12.2627 4.99421 12.132 4.99421 11.9999C4.99421 11.8679 5.02035 11.7372 5.07112 11.6154C5.12189 11.4935 5.19628 11.3829 5.29001 11.2899L8.59001 7.99994H1.00001C0.734796 7.99994 0.480441 7.89458 0.292905 7.70705C0.105369 7.51951 1.23978e-05 7.26516 1.23978e-05 6.99994C1.23978e-05 6.73472 0.105369 6.48037 0.292905 6.29283C0.480441 6.1053 0.734796 5.99994 1.00001 5.99994Z" fill="white"/>
</svg>
