<svg width="18" height="18" viewBox="0 0 18 18" fill="none" xmlns="http://www.w3.org/2000/svg">
<path d="M13.1667 2.49998H16.5C16.721 2.49998 16.933 2.58778 17.0893 2.74406C17.2456 2.90034 17.3334 3.1123 17.3334 3.33331V16.6666C17.3334 16.8877 17.2456 17.0996 17.0893 17.2559C16.933 17.4122 16.721 17.5 16.5 17.5H1.50002C1.27901 17.5 1.06704 17.4122 0.910765 17.2559C0.754484 17.0996 0.666687 16.8877 0.666687 16.6666V3.33331C0.666687 3.1123 0.754484 2.90034 0.910765 2.74406C1.06704 2.58778 1.27901 2.49998 1.50002 2.49998H4.83335V0.833313H6.50002V2.49998H11.5V0.833313H13.1667V2.49998ZM15.6667 9.16665H2.33335V15.8333H15.6667V9.16665ZM11.5 4.16665H6.50002V5.83331H4.83335V4.16665H2.33335V7.49998H15.6667V4.16665H13.1667V5.83331H11.5V4.16665ZM4.00002 10.8333H5.66669V12.5H4.00002V10.8333ZM8.16669 10.8333H9.83335V12.5H8.16669V10.8333ZM12.3334 10.8333H14V12.5H12.3334V10.8333Z" fill="#1F4173"/>
</svg>
