<svg width="16" height="16" viewBox="0 0 16 16" fill="none" xmlns="http://www.w3.org/2000/svg">
<path d="M10.7555 0.736693L15.2513 5.23178C15.2976 5.27803 15.3302 5.33621 15.3454 5.39987C15.3607 5.46352 15.358 5.53017 15.3377 5.59239C15.3174 5.65462 15.2802 5.70999 15.2303 5.75237C15.1804 5.79474 15.1197 5.82246 15.0551 5.83244L14.011 5.99536L10.0046 1.98903L10.1548 0.937151C10.1641 0.872106 10.1914 0.81094 10.2335 0.760495C10.2756 0.710051 10.3309 0.672317 10.3933 0.651515C10.4556 0.630713 10.5225 0.627663 10.5865 0.642705C10.6504 0.657748 10.7089 0.690291 10.7555 0.736693ZM2.25476 14.2729C4.89118 11.9135 7.91789 11.2073 11.2102 10.3629L11.5261 7.51686L8.48243 4.47315L5.63635 4.78907C4.79201 8.0814 4.0858 11.1074 1.72635 13.7445L0.73822 12.7571C2.74139 10.4196 3.49364 7.83207 4.49451 3.4914L9.00235 2.99061L13.0094 6.99765L12.5086 11.5055C8.16793 12.5071 5.57968 13.2586 3.24289 15.2618L2.25476 14.2729ZM5.9976 10.0017C5.86229 9.87101 5.75436 9.71469 5.68012 9.54185C5.60587 9.36901 5.56679 9.18312 5.56516 8.99501C5.56352 8.80691 5.59937 8.62036 5.6706 8.44626C5.74183 8.27216 5.84702 8.11398 5.98004 7.98097C6.11305 7.84795 6.27122 7.74276 6.44533 7.67153C6.61943 7.6003 6.80598 7.56445 6.99408 7.56609C7.18218 7.56772 7.36808 7.6068 7.54092 7.68105C7.71376 7.75529 7.87008 7.86322 8.00076 7.99853C8.25527 8.26632 8.3951 8.62294 8.39044 8.99235C8.38577 9.36177 8.23698 9.71474 7.97579 9.97603C7.7146 10.2373 7.36168 10.3862 6.99227 10.391C6.62286 10.3958 6.26619 10.2561 5.9983 10.0017H5.9976Z" fill="#1F4173"/>
</svg>
