<svg width="28" height="23" viewBox="0 0 28 23" fill="none" xmlns="http://www.w3.org/2000/svg">
<path d="M5.04165 7.87496C5.36212 7.87496 5.66946 8.00226 5.89607 8.22887C6.12267 8.45548 6.24998 8.76282 6.24998 9.08329C8.14844 9.08049 9.99216 9.7192 11.4821 10.8958H14.1041C15.7136 10.8958 17.1612 11.5954 18.1557 12.7071L21.9583 12.7083C23.1005 12.708 24.2194 13.0314 25.1852 13.6412C26.151 14.2509 26.9242 15.1219 27.4151 16.1532C24.5574 19.9245 19.9307 22.375 14.7083 22.375C11.3371 22.375 8.4854 21.6463 6.17748 20.3715C6.09295 20.6048 5.93852 20.8063 5.73525 20.9486C5.53198 21.0909 5.28977 21.167 5.04165 21.1666H1.41665C1.09618 21.1666 0.788832 21.0393 0.562226 20.8127C0.335619 20.5861 0.208313 20.2788 0.208313 19.9583V9.08329C0.208313 8.76282 0.335619 8.45548 0.562226 8.22887C0.788832 8.00226 1.09618 7.87496 1.41665 7.87496H5.04165ZM6.25119 11.5L6.24998 17.567L6.30435 17.6069C8.47331 19.1294 11.2984 19.9583 14.7083 19.9583C18.3381 19.9583 21.7154 18.5615 24.1756 16.1762L24.3363 16.0155L24.1913 15.8947C23.6207 15.4478 22.9291 15.1826 22.206 15.1334L21.9583 15.125L19.4063 15.1237C19.4945 15.5128 19.5416 15.9176 19.5416 16.3333V17.5416H8.66665V15.125L16.8712 15.1237L16.8301 15.0295C16.5986 14.5456 16.2424 14.1321 15.7981 13.8314C15.3539 13.5307 14.8376 13.3537 14.3023 13.3185L14.1041 13.3125H10.5637C10.0022 12.7382 9.33156 12.282 8.59115 11.9707C7.85075 11.6594 7.05557 11.4994 6.2524 11.5H6.25119ZM3.83331 10.2916H2.62498V18.75H3.83331V10.2916ZM15.4889 1.31975L15.9166 1.74871L16.3444 1.32096C16.6245 1.03847 16.9576 0.814092 17.3247 0.660701C17.6917 0.50731 18.0855 0.427929 18.4833 0.427114C18.8811 0.4263 19.2752 0.504069 19.6428 0.655955C20.0105 0.807842 20.3446 1.03086 20.6258 1.31219C20.9071 1.59353 21.13 1.92765 21.2818 2.29537C21.4336 2.66309 21.5112 3.05717 21.5103 3.45498C21.5094 3.85279 21.4299 4.24651 21.2764 4.61351C21.1229 4.98052 20.8984 5.3136 20.6159 5.59362L15.9166 10.2916L11.2162 5.59121C10.9337 5.3111 10.7094 4.97796 10.556 4.61091C10.4026 4.24386 10.3232 3.85012 10.3224 3.45231C10.3216 3.0545 10.3993 2.66044 10.5512 2.29276C10.7031 1.92509 10.9261 1.59103 11.2075 1.30977C11.4888 1.02852 11.8229 0.805596 12.1906 0.653814C12.5584 0.502031 12.9524 0.424374 13.3503 0.425301C13.7481 0.426228 14.1418 0.505721 14.5088 0.659215C14.8758 0.81271 15.2089 1.03718 15.4889 1.31975ZM12.9272 3.02954C12.8271 3.12913 12.765 3.26066 12.7517 3.40128C12.7385 3.54189 12.7749 3.68271 12.8547 3.79925L12.9248 3.88262L15.9166 6.87204L18.9085 3.88262C19.0086 3.78266 19.0704 3.65074 19.0832 3.50986C19.096 3.36899 19.059 3.22808 18.9786 3.11171L18.9085 3.02712C18.8084 2.92722 18.6764 2.86561 18.5355 2.85303C18.3946 2.84044 18.2538 2.87768 18.1376 2.95825L18.053 3.02833L15.9154 5.16466L13.7803 3.02591L13.6981 2.95825C13.5818 2.87783 13.4409 2.8408 13.3 2.85361C13.1591 2.86642 13.0272 2.92825 12.9272 3.02833V3.02954Z" fill="#7828DC"/>
</svg>
