<svg width="20" height="22" viewBox="0 0 20 22" fill="none" xmlns="http://www.w3.org/2000/svg">
<path d="M18.083 14.1999L19.285 14.9209C19.3591 14.9653 19.4205 15.0282 19.4631 15.1034C19.5058 15.1786 19.5282 15.2635 19.5282 15.3499C19.5282 15.4364 19.5058 15.5213 19.4631 15.5965C19.4205 15.6717 19.3591 15.7346 19.285 15.7789L10.515 21.0409C10.3594 21.1344 10.1814 21.1838 9.99998 21.1838C9.81853 21.1838 9.64051 21.1344 9.48498 21.0409L0.714977 15.7789C0.640823 15.7346 0.579442 15.6717 0.536823 15.5965C0.494204 15.5213 0.471802 15.4364 0.471802 15.3499C0.471802 15.2635 0.494204 15.1786 0.536823 15.1034C0.579442 15.0282 0.640823 14.9653 0.714977 14.9209L1.91698 14.1999L9.99998 19.0499L18.083 14.1999ZM18.083 9.49995L19.285 10.2209C19.3591 10.2653 19.4205 10.3282 19.4631 10.4034C19.5058 10.4786 19.5282 10.5635 19.5282 10.6499C19.5282 10.7364 19.5058 10.8213 19.4631 10.8965C19.4205 10.9717 19.3591 11.0346 19.285 11.0789L9.99998 16.6499L0.714977 11.0789C0.640823 11.0346 0.579442 10.9717 0.536823 10.8965C0.494204 10.8213 0.471802 10.7364 0.471802 10.6499C0.471802 10.5635 0.494204 10.4786 0.536823 10.4034C0.579442 10.3282 0.640823 10.2653 0.714977 10.2209L1.91698 9.49995L9.99998 14.3499L18.083 9.49995ZM10.514 0.308948L19.285 5.57095C19.3591 5.61534 19.4205 5.6782 19.4631 5.75338C19.5058 5.82857 19.5282 5.91352 19.5282 5.99995C19.5282 6.08637 19.5058 6.17132 19.4631 6.24651C19.4205 6.3217 19.3591 6.38455 19.285 6.42895L9.99998 11.9999L0.714977 6.42895C0.640823 6.38455 0.579442 6.3217 0.536823 6.24651C0.494204 6.17132 0.471802 6.08637 0.471802 5.99995C0.471802 5.91352 0.494204 5.82857 0.536823 5.75338C0.579442 5.6782 0.640823 5.61534 0.714977 5.57095L9.48498 0.308948C9.64051 0.215504 9.81853 0.166138 9.99998 0.166138C10.1814 0.166138 10.3594 0.215504 10.515 0.308948H10.514ZM9.99998 2.33195L3.88698 5.99995L9.99998 9.66795L16.113 5.99995L9.99998 2.33195Z" fill="#1F4173"/>
</svg>
