<svg width="22" height="22" viewBox="0 0 22 22" fill="none" xmlns="http://www.w3.org/2000/svg">
<path d="M18.5833 21.8333H3.41666C2.5547 21.8333 1.72805 21.4909 1.11856 20.8814C0.509066 20.2719 0.166656 19.4452 0.166656 18.5833V1.24996C0.166656 0.962641 0.280793 0.687091 0.483957 0.483927C0.687122 0.280763 0.962672 0.166626 1.24999 0.166626H16.4167C16.704 0.166626 16.9795 0.280763 17.1827 0.483927C17.3859 0.687091 17.5 0.962641 17.5 1.24996V14.25H21.8333V18.5833C21.8333 19.4452 21.4909 20.2719 20.8814 20.8814C20.2719 21.4909 19.4453 21.8333 18.5833 21.8333ZM17.5 16.4166V18.5833C17.5 18.8706 17.6141 19.1462 17.8173 19.3493C18.0205 19.5525 18.296 19.6666 18.5833 19.6666C18.8706 19.6666 19.1462 19.5525 19.3494 19.3493C19.5525 19.1462 19.6667 18.8706 19.6667 18.5833V16.4166H17.5ZM15.3333 19.6666V2.33329H2.33332V18.5833C2.33332 18.8706 2.44746 19.1462 2.65062 19.3493C2.85379 19.5525 3.12934 19.6666 3.41666 19.6666H15.3333ZM4.49999 5.58329H13.1667V7.74996H4.49999V5.58329ZM4.49999 9.91663H13.1667V12.0833H4.49999V9.91663ZM4.49999 14.25H9.91666V16.4166H4.49999V14.25Z" fill="white"/>
</svg>
