<svg width="18" height="18" viewBox="0 0 18 18" fill="none" xmlns="http://www.w3.org/2000/svg">
<path d="M8.16669 0.666626C12.3067 0.666626 15.6667 4.02663 15.6667 8.16663C15.6667 12.3066 12.3067 15.6666 8.16669 15.6666C4.02669 15.6666 0.666687 12.3066 0.666687 8.16663C0.666687 4.02663 4.02669 0.666626 8.16669 0.666626ZM8.16669 14C11.3892 14 14 11.3891 14 8.16663C14 4.94329 11.3892 2.33329 8.16669 2.33329C4.94335 2.33329 2.33335 4.94329 2.33335 8.16663C2.33335 11.3891 4.94335 14 8.16669 14ZM15.2375 14.0591L17.595 16.4158L16.4159 17.595L14.0592 15.2375L15.2375 14.0591Z" fill="#1F4173"/>
</svg>
