<svg width="20" height="18" viewBox="0 0 20 18" fill="none" xmlns="http://www.w3.org/2000/svg">
<path d="M13.366 0.437988L16.577 5.99999H20V7.99999H18.833L18.076 17.083C18.0552 17.3329 17.9413 17.5658 17.7568 17.7357C17.5723 17.9055 17.3308 17.9999 17.08 18H2.92C2.66925 17.9999 2.4277 17.9055 2.24322 17.7357C2.05875 17.5658 1.94481 17.3329 1.924 17.083L1.166 7.99999H0V5.99999H3.422L6.634 0.437988L8.366 1.43799L5.732 5.99999H14.267L11.634 1.43799L13.366 0.437988ZM16.826 7.99999H3.173L3.84 16H16.159L16.826 7.99999ZM11 9.99999V14H9V9.99999H11ZM7 9.99999V14H5V9.99999H7ZM15 9.99999V14H13V9.99999H15Z" fill="#1F4173"/>
</svg>
