<svg width="26" height="25" viewBox="0 0 26 25" fill="none" xmlns="http://www.w3.org/2000/svg">
<path d="M13 0.5C14.9891 0.5 16.8968 1.29018 18.3033 2.6967C19.7098 4.10322 20.5 6.01088 20.5 8V9.25H25.5V11.75H24.0413L23.095 23.1038C23.069 23.4161 22.9266 23.7073 22.696 23.9196C22.4654 24.1319 22.1634 24.2498 21.85 24.25H4.15C3.83656 24.2498 3.53462 24.1319 3.30403 23.9196C3.07343 23.7073 2.93102 23.4161 2.905 23.1038L1.9575 11.75H0.5V9.25H5.5V8C5.5 6.01088 6.29018 4.10322 7.6967 2.6967C9.10322 1.29018 11.0109 0.5 13 0.5ZM21.5325 11.75H4.46625L5.3 21.75H20.6987L21.5325 11.75ZM14.25 14.25V19.25H11.75V14.25H14.25ZM9.25 14.25V19.25H6.75V14.25H9.25ZM19.25 14.25V19.25H16.75V14.25H19.25ZM13 3C11.7172 3 10.4835 3.49304 9.55398 4.37715C8.62451 5.26127 8.07039 6.4688 8.00625 7.75L8 8V9.25H18V8C18 6.7172 17.507 5.48346 16.6228 4.55399C15.7387 3.62451 14.5312 3.07039 13.25 3.00625L13 3Z" fill="#0163DE"/>
</svg>
